<mxfile host="Electron" modified="2023-06-06T21:19:10.812Z" agent="Mozilla/5.0 (Macintosh; Intel Mac OS X 10_15_7) AppleWebKit/537.36 (KHTML, like Gecko) draw.io/21.2.8 Chrome/112.0.5615.165 Electron/24.2.0 Safari/537.36" etag="W2TAptcPJjsKITOFsnQw" version="21.2.8" type="device">
  <diagram name="Page-1" id="CB2vEQH-WxeTMzOxPBG1">
    <mxGraphModel dx="814" dy="854" grid="1" gridSize="10" guides="1" tooltips="1" connect="1" arrows="1" fold="1" page="1" pageScale="1" pageWidth="827" pageHeight="1169" math="0" shadow="0">
      <root>
        <mxCell id="0" />
        <mxCell id="1" parent="0" />
        <mxCell id="5qkUnV3F5SMfWiWBLubs-1" value="KUBECONFIG=$HOME/.kube/config" style="ellipse;whiteSpace=wrap;html=1;sketch=1;curveFitting=1;jiggle=2;verticalAlign=bottom;spacingTop=0;spacingBottom=-22;" vertex="1" parent="1">
          <mxGeometry x="40" y="440" width="320" height="80" as="geometry" />
        </mxCell>
        <mxCell id="5qkUnV3F5SMfWiWBLubs-2" value="KUBECONFIG=/opt/oracle/.kube" style="ellipse;whiteSpace=wrap;html=1;sketch=1;curveFitting=1;jiggle=2;verticalAlign=bottom;spacingBottom=-22;" vertex="1" parent="1">
          <mxGeometry x="400" y="440" width="320" height="80" as="geometry" />
        </mxCell>
        <mxCell id="5qkUnV3F5SMfWiWBLubs-5" value="Development Context" style="ellipse;whiteSpace=wrap;html=1;sketch=1;curveFitting=1;jiggle=2;fillColor=#ffcccc;strokeColor=#36393d;" vertex="1" parent="1">
          <mxGeometry x="70" y="455" width="130" height="50" as="geometry" />
        </mxCell>
        <mxCell id="5qkUnV3F5SMfWiWBLubs-6" value="Production Context" style="ellipse;whiteSpace=wrap;html=1;sketch=1;curveFitting=1;jiggle=2;fillColor=#ffcccc;strokeColor=#36393d;" vertex="1" parent="1">
          <mxGeometry x="495" y="455" width="130" height="50" as="geometry" />
        </mxCell>
        <mxCell id="5qkUnV3F5SMfWiWBLubs-7" value="Test Context" style="ellipse;whiteSpace=wrap;html=1;sketch=1;curveFitting=1;jiggle=2;fillColor=#ffcc99;strokeColor=#36393d;" vertex="1" parent="1">
          <mxGeometry x="210" y="455" width="130" height="50" as="geometry" />
        </mxCell>
        <mxCell id="5qkUnV3F5SMfWiWBLubs-8" value="Development&lt;br style=&quot;font-size: 15px;&quot;&gt;Cluster" style="whiteSpace=wrap;html=1;sketch=1;curveFitting=1;jiggle=2;verticalAlign=bottom;fontSize=15;fontStyle=1" vertex="1" parent="1">
          <mxGeometry x="40" y="40" width="140" height="360" as="geometry" />
        </mxCell>
        <mxCell id="5qkUnV3F5SMfWiWBLubs-9" value="Test&lt;br style=&quot;font-size: 15px;&quot;&gt;Cluster" style="whiteSpace=wrap;html=1;sketch=1;curveFitting=1;jiggle=2;verticalAlign=bottom;fontSize=15;fontStyle=1" vertex="1" parent="1">
          <mxGeometry x="220" y="40" width="140" height="360" as="geometry" />
        </mxCell>
        <mxCell id="5qkUnV3F5SMfWiWBLubs-10" value="Production&lt;br style=&quot;font-size: 15px;&quot;&gt;Cluster" style="whiteSpace=wrap;html=1;sketch=1;curveFitting=1;jiggle=2;verticalAlign=bottom;fontSize=15;fontStyle=1" vertex="1" parent="1">
          <mxGeometry x="400" y="40" width="320" height="360" as="geometry" />
        </mxCell>
        <mxCell id="5qkUnV3F5SMfWiWBLubs-11" value="default&lt;br&gt;namespace" style="whiteSpace=wrap;html=1;sketch=1;curveFitting=1;jiggle=2;fillColor=#dae8fc;strokeColor=#6c8ebf;" vertex="1" parent="1">
          <mxGeometry x="50" y="60" width="120" height="60" as="geometry" />
        </mxCell>
        <mxCell id="5qkUnV3F5SMfWiWBLubs-12" value="default&lt;br&gt;namespace" style="whiteSpace=wrap;html=1;sketch=1;curveFitting=1;jiggle=2;fillColor=#dae8fc;strokeColor=#6c8ebf;" vertex="1" parent="1">
          <mxGeometry x="230" y="60" width="120" height="60" as="geometry" />
        </mxCell>
        <mxCell id="5qkUnV3F5SMfWiWBLubs-13" value="default&lt;br&gt;namespace" style="whiteSpace=wrap;html=1;sketch=1;curveFitting=1;jiggle=2;fillColor=#dae8fc;strokeColor=#6c8ebf;" vertex="1" parent="1">
          <mxGeometry x="495" y="60" width="120" height="60" as="geometry" />
        </mxCell>
        <mxCell id="5qkUnV3F5SMfWiWBLubs-14" value="kube-system&lt;br&gt;namespace" style="whiteSpace=wrap;html=1;sketch=1;curveFitting=1;jiggle=2;fillColor=#d5e8d4;strokeColor=#82b366;" vertex="1" parent="1">
          <mxGeometry x="50" y="130" width="120" height="60" as="geometry" />
        </mxCell>
        <mxCell id="5qkUnV3F5SMfWiWBLubs-15" value="kube-system&lt;br&gt;namespace" style="whiteSpace=wrap;html=1;sketch=1;curveFitting=1;jiggle=2;fillColor=#d5e8d4;strokeColor=#82b366;" vertex="1" parent="1">
          <mxGeometry x="230" y="130" width="120" height="60" as="geometry" />
        </mxCell>
        <mxCell id="5qkUnV3F5SMfWiWBLubs-16" value="kube-system&lt;br&gt;namespace" style="whiteSpace=wrap;html=1;sketch=1;curveFitting=1;jiggle=2;fillColor=#d5e8d4;strokeColor=#82b366;" vertex="1" parent="1">
          <mxGeometry x="495" y="130" width="120" height="60" as="geometry" />
        </mxCell>
        <mxCell id="5qkUnV3F5SMfWiWBLubs-17" value="dba-dave&lt;br&gt;namespace" style="whiteSpace=wrap;html=1;sketch=1;curveFitting=1;jiggle=2;fillColor=#ffcccc;strokeColor=#36393d;" vertex="1" parent="1">
          <mxGeometry x="50" y="200" width="120" height="60" as="geometry" />
        </mxCell>
        <mxCell id="5qkUnV3F5SMfWiWBLubs-18" value="dba-debbie&lt;br&gt;namespace" style="whiteSpace=wrap;html=1;sketch=1;curveFitting=1;jiggle=2;fillColor=#fff2cc;strokeColor=#d6b656;" vertex="1" parent="1">
          <mxGeometry x="50" y="270" width="120" height="60" as="geometry" />
        </mxCell>
        <mxCell id="5qkUnV3F5SMfWiWBLubs-19" value="dba-team&lt;br&gt;namespace" style="whiteSpace=wrap;html=1;sketch=1;curveFitting=1;jiggle=2;fillColor=#ffcc99;strokeColor=#36393d;" vertex="1" parent="1">
          <mxGeometry x="230" y="200" width="120" height="130" as="geometry" />
        </mxCell>
        <mxCell id="5qkUnV3F5SMfWiWBLubs-20" value="database&lt;br&gt;namespace" style="whiteSpace=wrap;html=1;sketch=1;curveFitting=1;jiggle=2;fillColor=#ffcccc;strokeColor=#36393d;" vertex="1" parent="1">
          <mxGeometry x="495" y="200" width="120" height="130" as="geometry" />
        </mxCell>
        <mxCell id="5qkUnV3F5SMfWiWBLubs-23" style="edgeStyle=orthogonalEdgeStyle;orthogonalLoop=1;jettySize=auto;html=1;exitX=0.5;exitY=0;exitDx=0;exitDy=0;entryX=1;entryY=0.5;entryDx=0;entryDy=0;curved=1;sketch=1;curveFitting=1;jiggle=2;" edge="1" parent="1" source="5qkUnV3F5SMfWiWBLubs-6" target="5qkUnV3F5SMfWiWBLubs-20">
          <mxGeometry relative="1" as="geometry">
            <Array as="points">
              <mxPoint x="560" y="410" />
              <mxPoint x="635" y="410" />
              <mxPoint x="635" y="265" />
            </Array>
          </mxGeometry>
        </mxCell>
        <mxCell id="5qkUnV3F5SMfWiWBLubs-25" style="edgeStyle=orthogonalEdgeStyle;orthogonalLoop=1;jettySize=auto;html=1;exitX=0.5;exitY=0;exitDx=0;exitDy=0;entryX=1;entryY=0.5;entryDx=0;entryDy=0;curved=1;sketch=1;curveFitting=1;jiggle=2;" edge="1" parent="1" source="5qkUnV3F5SMfWiWBLubs-5" target="5qkUnV3F5SMfWiWBLubs-17">
          <mxGeometry relative="1" as="geometry">
            <Array as="points">
              <mxPoint x="135" y="390" />
              <mxPoint x="190" y="390" />
              <mxPoint x="190" y="230" />
            </Array>
          </mxGeometry>
        </mxCell>
        <mxCell id="5qkUnV3F5SMfWiWBLubs-24" style="edgeStyle=orthogonalEdgeStyle;orthogonalLoop=1;jettySize=auto;html=1;exitX=0.5;exitY=0;exitDx=0;exitDy=0;entryX=1;entryY=0.5;entryDx=0;entryDy=0;curved=1;sketch=1;curveFitting=1;jiggle=2;" edge="1" parent="1" source="5qkUnV3F5SMfWiWBLubs-7" target="5qkUnV3F5SMfWiWBLubs-19">
          <mxGeometry relative="1" as="geometry">
            <Array as="points">
              <mxPoint x="275" y="420" />
              <mxPoint x="370" y="420" />
              <mxPoint x="370" y="265" />
            </Array>
          </mxGeometry>
        </mxCell>
      </root>
    </mxGraphModel>
  </diagram>
</mxfile>
